<?xml version="1.0" standalone="no"?><!DOCTYPE svg PUBLIC "-//W3C//DTD SVG 1.1//EN" "http://www.w3.org/Graphics/SVG/1.1/DTD/svg11.dtd"><svg t="1728107916903" class="icon" viewBox="0 0 1024 1024" version="1.1" xmlns="http://www.w3.org/2000/svg" p-id="1575" xmlns:xlink="http://www.w3.org/1999/xlink" width="200" height="200"><path d="M64 320h896v576a64 64 0 0 1-64 64H128a64 64 0 0 1-64-64V320z" fill="#475FFD" p-id="1576"></path><path d="M497.024 509.568h38.784v24.576h62.976v33.024h-62.976v28.416h74.496v34.56H421.76v-34.56h75.264v-28.416H432.128v-33.024h64.896v-24.576z m168.96-44.928v306.816c0 23.296-13.952 34.944-41.856 34.944h-48l-10.368-38.016c18.432 1.28 33.92 1.92 46.464 1.92 9.216 0 13.824-4.352 13.824-13.056V501.504H406.4v115.584c-0.768 78.592-14.592 142.464-41.472 191.616l-30.72-27.648c20.736-42.24 31.488-95.872 32.256-160.896V464.64h299.52z m-233.856 185.856h163.968v101.376H432.128v-101.376z m125.568 67.2v-33.792H470.528v33.792h87.168z" fill="#FFFFFF" p-id="1577"></path><path d="M64 192a64 64 0 0 1 64-64h768a64 64 0 0 1 64 64v64H64V192z" fill="#FFA216" p-id="1578"></path><path d="M256 0m64 0l0 0q64 0 64 64l0 64q0 64-64 64l0 0q-64 0-64-64l0-64q0-64 64-64Z" fill="#FFA216" p-id="1579"></path><path d="M640 0m64 0l0 0q64 0 64 64l0 64q0 64-64 64l0 0q-64 0-64-64l0-64q0-64 64-64Z" fill="#FFA216" p-id="1580"></path></svg>